<?xml version="1.0" standalone="no"?><!DOCTYPE svg PUBLIC "-//W3C//DTD SVG 1.1//EN" "http://www.w3.org/Graphics/SVG/1.1/DTD/svg11.dtd"><svg t="1558326876252" class="icon" style="" viewBox="0 0 1024 1024" version="1.1" xmlns="http://www.w3.org/2000/svg" p-id="1298" xmlns:xlink="http://www.w3.org/1999/xlink" width="200" height="200"><defs><style type="text/css"></style></defs><path d="M808.773818 229.655273c-7.074909-7.447273-18.897455-7.726545-26.344727-0.651637-7.447273 7.074909-7.726545 18.897455-0.651636 26.344728C847.965091 324.887273 884.363636 416.023273 884.363636 512c0 50.269091-9.867636 99.048727-29.230545 144.942545-18.711273 44.311273-45.614545 84.154182-79.778909 118.411637-34.164364 34.164364-74.007273 61.067636-118.411637 79.778909C611.048727 874.496 562.269091 884.363636 512 884.363636c-50.269091 0-99.048727-9.867636-144.942545-29.230545-44.311273-18.711273-84.154182-45.614545-118.411637-79.778909-34.164364-34.164364-61.067636-74.007273-79.778909-118.411637C149.504 611.048727 139.636364 562.269091 139.636364 512c0-50.269091 9.867636-99.048727 29.230545-144.942545 18.711273-44.311273 45.614545-84.154182 79.778909-118.411637s74.007273-61.067636 118.411637-79.778909C412.951273 149.504 461.730909 139.636364 512 139.636364c65.070545 0 129.210182 17.035636 185.250909 49.245091 8.936727 5.12 20.293818 2.048 25.413818-6.888728s2.048-20.293818-6.888727-25.413818C654.056727 121.111273 583.586909 102.4 512 102.4c-55.296 0-108.916364 10.798545-159.464727 32.209455-48.779636 20.666182-92.625455 50.176-130.234182 87.784727s-67.118545 81.454545-87.784727 130.234182C113.198545 403.083636 102.4 456.704 102.4 512s10.798545 108.916364 32.209455 159.464727c20.666182 48.779636 50.176 92.625455 87.784727 130.234182s81.454545 67.118545 130.234182 87.784727C403.083636 910.801455 456.704 921.6 512 921.6s108.916364-10.798545 159.464727-32.209455c48.779636-20.666182 92.625455-50.176 130.234182-87.784727s67.118545-81.454545 87.784727-130.234182C910.801455 620.916364 921.6 567.296 921.6 512c0-105.565091-40.029091-205.824-112.826182-282.344727z" fill="#353535" p-id="1299"></path><path d="M355.607273 420.119273m-39.098182 0a39.098182 39.098182 0 1 0 78.196364 0 39.098182 39.098182 0 1 0-78.196364 0Z" fill="#FEC500" p-id="1300"></path><path d="M668.392727 420.119273m-39.098182 0a39.098182 39.098182 0 1 0 78.196364 0 39.098182 39.098182 0 1 0-78.196364 0Z" fill="#FEC500" p-id="1301"></path><path d="M697.716364 612.165818c-11.077818 31.371636-35.002182 59.857455-67.304728 80.058182-34.164364 21.317818-75.124364 32.581818-118.411636 32.581818s-84.247273-11.264-118.411636-32.581818c-32.395636-20.200727-56.32-48.686545-67.304728-80.058182-3.444364-9.681455-14.056727-14.801455-23.738181-11.357091-9.681455 3.444364-14.801455 14.056727-11.357091 23.738182 13.870545 39.284364 43.194182 74.565818 82.757818 99.234909 40.029091 25.041455 87.877818 38.260364 138.146909 38.260364s98.117818-13.218909 138.146909-38.260364c39.470545-24.669091 68.887273-59.950545 82.757818-99.234909 3.444364-9.681455-1.675636-20.293818-11.357091-23.738182-9.867636-3.444364-20.48 1.675636-23.924363 11.357091z" fill="#FEC500" p-id="1302"></path></svg>